<?xml version="1.0" standalone="no"?>
<!DOCTYPE svg PUBLIC "-//W3C//DTD SVG 20010904//EN"
 "http://www.w3.org/TR/2001/REC-SVG-20010904/DTD/svg10.dtd">
<svg version="1.0" xmlns="http://www.w3.org/2000/svg"
 width="252.000000pt" height="252.000000pt" viewBox="0 0 252.000000 252.000000"
 preserveAspectRatio="xMidYMid meet">
<metadata>
Created by potrace 1.11, written by Peter Selinger 2001-2013
</metadata>
<g transform="translate(0.000000,252.000000) scale(0.100000,-0.100000)"
fill="#000000" stroke="none">
<path d="M1117 2338 c6 -57 5 -58 -20 -58 -20 0 -25 -4 -20 -16 4 -10 16 -14
37 -12 31 3 31 3 27 53 -2 28 -6 52 -11 55 -4 3 -9 12 -12 20 -3 8 -4 -11 -1
-42z"/>
<path d="M1505 2370 c-4 -6 -26 -11 -49 -9 -22 1 -49 1 -59 0 -24 -1 -11 -21
14 -21 10 0 19 -4 19 -8 0 -5 19 -15 43 -22 23 -8 44 -17 47 -20 3 -3 31 -18
63 -35 32 -16 65 -38 74 -47 8 -9 21 -14 29 -11 8 3 17 -5 23 -20 14 -36 28
-41 35 -13 6 24 61 63 139 99 20 10 37 19 37 20 0 1 -18 1 -40 -1 -25 -3 -40
0 -40 7 0 6 -19 14 -42 17 -22 4 -49 15 -60 26 -15 15 -21 16 -38 6 -16 -10
-29 -10 -69 5 -27 9 -60 17 -73 17 -13 0 -29 5 -35 11 -8 8 -13 7 -18 -1z"/>
<path d="M1949 2253 c-10 -2 -19 -12 -22 -22 -2 -9 -30 -30 -61 -45 -31 -15
-56 -32 -56 -37 0 -5 -13 -9 -30 -9 -36 0 -39 -12 -6 -29 20 -11 28 -10 50 4
25 17 26 17 53 -14 15 -17 33 -31 41 -31 17 0 60 -48 73 -82 6 -16 15 -28 19
-28 4 0 11 -12 15 -27 3 -16 17 -42 31 -60 13 -17 24 -36 24 -42 0 -6 4 -11 9
-11 21 0 36 -106 36 -255 l0 -120 28 -12 c40 -18 36 -65 -12 -153 -6 -10 -21
-14 -46 -12 l-38 3 17 -25 c12 -20 14 -31 6 -45 -5 -11 -10 -30 -10 -42 0 -12
-9 -31 -20 -43 -11 -12 -31 -33 -45 -47 -22 -23 -23 -27 -10 -46 8 -12 12 -28
9 -37 -11 -29 -44 -17 -91 34 -25 27 -48 48 -50 46 -5 -5 56 -109 71 -119 7
-6 6 -7 -4 -5 -8 3 -21 -8 -31 -26 -10 -17 -22 -30 -28 -28 -6 1 -14 -11 -18
-28 -3 -17 -10 -33 -14 -36 -5 -3 -9 -54 -9 -114 0 -97 -2 -109 -19 -115 -47
-15 -59 8 -63 120 -2 54 -6 70 -18 70 -8 0 -18 -16 -24 -39 -10 -44 -30 -70
-62 -80 -16 -5 -29 2 -52 28 -26 30 -31 32 -45 19 -12 -12 -19 -13 -38 -2 -13
6 -37 16 -54 20 -16 4 -40 11 -52 14 -34 11 -29 -14 10 -47 l32 -29 -25 -19
c-45 -36 -91 -53 -138 -51 -25 1 -50 5 -56 10 -6 4 -30 11 -52 14 l-42 5 34
-36 c38 -41 39 -42 22 -65 -12 -16 -19 -13 -81 28 -65 44 -80 66 -54 82 7 5
-24 10 -73 13 l-84 5 -15 40 c-18 50 -20 52 -30 37 -9 -14 -147 -45 -168 -38
-7 3 -13 12 -13 21 0 20 -49 64 -72 65 -10 0 -18 4 -18 10 0 5 -12 16 -27 24
-16 8 -39 24 -52 35 -13 12 -30 21 -36 21 -7 0 -18 6 -24 14 -9 10 -4 25 24
66 51 76 48 92 -7 38 -18 -18 -40 -34 -48 -36 -8 -2 -24 -12 -36 -23 -26 -24
-34 -24 -34 1 0 11 -4 20 -8 20 -14 0 -92 78 -92 93 0 8 11 31 25 51 28 42 16
47 -23 11 -37 -35 -68 -42 -92 -20 -11 10 -20 23 -20 28 0 13 60 67 74 67 5 0
3 6 -6 13 -9 6 -18 32 -21 57 -6 58 -25 132 -38 145 -5 5 -9 17 -9 27 0 9 -8
22 -18 27 -15 10 -15 10 4 11 25 0 44 18 44 42 0 15 -4 16 -26 8 -47 -18 -53
-14 -56 43 l-3 52 -14 -30 c-25 -58 -33 -179 -15 -248 9 -34 19 -109 24 -167
4 -58 13 -118 20 -135 7 -16 19 -44 26 -62 8 -17 14 -33 14 -36 0 -3 16 -33
36 -66 36 -61 106 -131 129 -131 8 0 15 -3 17 -7 2 -5 28 -20 59 -36 33 -16
82 -55 123 -97 37 -39 73 -70 81 -70 7 0 15 -5 17 -10 2 -6 28 -13 58 -17 37
-4 72 -17 108 -40 51 -32 54 -33 166 -33 99 0 121 -3 182 -27 99 -39 228 -36
329 7 11 5 46 14 78 20 59 12 84 6 138 -32 27 -19 62 0 99 52 19 28 45 53 58
56 12 3 22 9 22 13 0 3 28 15 63 26 84 26 114 47 167 118 25 34 70 81 100 104
111 87 146 122 195 194 27 41 52 76 56 79 18 15 59 106 69 152 41 202 37 317
-17 493 -28 92 -85 211 -122 253 -14 17 -44 51 -65 76 -22 25 -58 58 -80 75
-23 16 -64 51 -92 77 -71 68 -79 74 -115 81 -22 4 -27 8 -17 14 14 9 5 10 -23
2z m286 -323 c0 -23 -5 -26 -55 -33 -96 -13 -112 -13 -123 4 -23 36 33 58 138
55 36 -1 40 -4 40 -26z m109 -360 c6 -6 18 -10 28 -10 18 0 22 -10 18 -40 -3
-23 -7 -24 -34 -6 -14 9 -41 16 -60 16 -48 0 -86 19 -86 43 0 18 5 19 62 13
34 -3 67 -11 72 -16z m-111 -543 c32 -63 34 -84 6 -92 -11 -4 -22 -5 -24 -3
-8 9 -65 106 -65 111 0 11 31 37 44 37 7 0 25 -24 39 -53z"/>
<path d="M850 2132 c0 -4 4 -12 9 -17 5 -6 12 -25 16 -42 8 -40 -14 -46 -41
-10 -16 22 -16 22 -10 -13 3 -19 16 -45 29 -58 l22 -23 -25 -20 c-14 -10 -33
-21 -42 -25 -10 -3 -18 -10 -18 -15 0 -5 -7 -9 -15 -9 -20 0 -19 -12 3 -32 36
-34 62 -70 62 -88 0 -24 -20 -37 -30 -19 -21 36 -85 89 -110 89 -5 0 -10 -8
-10 -18 0 -11 -11 -32 -25 -47 -16 -19 -26 -47 -31 -82 -7 -60 3 -162 18 -180
6 -7 8 -21 6 -31 -3 -10 0 -23 7 -29 18 -17 29 -151 14 -169 -6 -8 -8 -14 -3
-14 19 0 32 17 36 45 l5 30 18 -42 c10 -24 22 -43 26 -43 5 0 7 -6 5 -12 -1
-7 -1 -10 1 -5 8 13 50 8 63 -8 12 -14 15 -28 19 -77 0 -10 8 -18 16 -18 8 0
15 -4 15 -10 0 -5 11 -10 25 -10 14 0 25 -4 25 -10 0 -5 6 -10 14 -10 12 0 25
-10 86 -64 8 -7 23 -16 32 -19 9 -3 21 -21 27 -39 l9 -33 1 30 c2 42 23 65 59
65 27 0 32 -4 41 -37 15 -51 14 -126 -1 -141 -7 -7 -22 -12 -35 -12 -13 0 -23
-4 -23 -10 0 -14 54 -12 68 2 7 7 12 38 12 70 l0 58 65 0 c36 0 66 -1 68 -1 1
-1 21 8 44 20 23 11 51 21 61 21 10 0 27 7 38 15 31 23 48 18 103 -35 55 -53
71 -59 91 -35 20 24 -4 45 -45 38 -28 -4 -35 -1 -46 18 -6 13 -23 33 -36 44
-27 24 -29 38 -7 56 12 10 20 10 35 0 17 -10 27 -7 72 26 60 44 157 137 157
152 0 20 30 39 75 45 36 6 45 11 45 27 0 11 -5 26 -12 33 -9 10 -15 9 -29 -5
-10 -10 -39 -21 -66 -25 -26 -3 -56 -11 -66 -16 -10 -5 -26 -7 -34 -3 -26 9 1
28 55 40 47 10 47 11 45 50 -1 22 -6 56 -12 75 -5 19 -17 64 -27 100 -10 36
-21 69 -26 74 -4 6 -8 16 -8 23 0 22 -57 138 -75 153 -12 10 -13 16 -4 26 17
21 -1 16 -46 -11 -22 -14 -46 -25 -52 -25 -23 0 -14 38 14 59 14 12 24 23 22
24 -2 2 -24 19 -49 38 -49 39 -144 89 -166 89 -8 0 -23 9 -34 20 l-20 20 0
-29 c0 -38 -20 -54 -53 -42 -19 8 -26 18 -29 43 -2 18 -8 32 -14 31 -6 -1 -39
-4 -73 -7 -46 -3 -84 -15 -146 -45 -46 -23 -88 -41 -93 -41 -6 0 -25 27 -44
60 -29 54 -48 74 -48 52z m459 -301 c24 -5 46 -13 50 -18 3 -5 38 -24 76 -42
39 -18 84 -40 100 -49 42 -21 115 -99 115 -122 0 -10 4 -21 9 -24 4 -3 11 -36
14 -72 4 -37 11 -72 17 -78 15 -15 12 -41 -10 -84 -34 -65 -118 -131 -210
-165 -123 -44 -315 -46 -408 -4 -26 11 -49 22 -52 23 -3 1 -15 5 -27 9 -13 4
-23 11 -23 15 0 4 -11 20 -26 36 -50 57 -84 116 -84 144 0 28 54 130 68 130 4
0 26 18 49 40 56 54 76 60 222 67 102 5 138 3 186 -11 70 -20 119 -41 157 -68
34 -24 52 -15 44 23 -5 29 -55 108 -68 109 -4 0 -31 18 -60 40 -29 22 -60 40
-70 40 -9 0 -18 4 -20 8 -3 9 -180 -7 -188 -17 -3 -3 -27 -17 -53 -31 -27 -14
-65 -39 -86 -57 -20 -17 -56 -36 -79 -42 -23 -7 -51 -21 -62 -33 -18 -19 -20
-20 -20 -4 0 55 85 155 167 199 80 43 177 56 272 38z"/>
<path d="M502 2070 c0 -14 2 -19 5 -12 2 6 2 18 0 25 -3 6 -5 1 -5 -13z"/>
<path d="M481 2018 c-6 -18 -18 -28 -30 -28 -14 0 -19 -5 -15 -15 10 -25 38
-17 52 15 8 16 12 36 9 42 -3 8 -9 1 -16 -14z"/>
<path d="M280 1891 c-25 -9 -47 -19 -50 -22 -3 -3 -20 -14 -37 -24 -32 -19
-45 -45 -22 -45 6 0 25 11 42 24 18 13 50 29 72 36 48 15 63 27 50 39 -6 5
-29 2 -55 -8z"/>
<path d="M1990 1700 c0 -5 -11 -10 -25 -10 -28 0 -33 -15 -9 -24 18 -7 64 18
64 34 0 6 -7 10 -15 10 -8 0 -15 -4 -15 -10z"/>
<path d="M340 1686 c0 -9 12 -19 27 -22 15 -4 38 -13 52 -20 14 -8 31 -14 36
-14 6 0 23 -11 39 -25 38 -32 69 -34 64 -2 -2 16 -9 21 -25 20 -12 -1 -47 13
-79 32 -32 19 -63 35 -70 35 -7 0 -19 3 -28 6 -11 4 -16 1 -16 -10z"/>
<path d="M2093 1410 c-6 -14 -13 -43 -17 -65 l-6 -40 20 43 c12 24 19 53 17
65 -3 21 -4 21 -14 -3z"/>
<path d="M490 1380 c-13 -8 -12 -10 3 -10 9 0 17 5 17 10 0 12 -1 12 -20 0z"/>
<path d="M820 1180 c0 -5 5 -10 10 -10 6 0 10 5 10 10 0 6 -4 10 -10 10 -5 0
-10 -4 -10 -10z"/>
<path d="M783 1104 c-15 -16 -16 -24 -4 -24 8 0 24 30 19 35 -2 2 -9 -3 -15
-11z"/>
<path d="M640 923 c0 -13 53 -63 67 -63 7 0 13 -4 13 -8 0 -13 76 -36 89 -28
14 9 15 56 1 56 -5 0 -10 -4 -10 -9 0 -19 -119 24 -135 49 -7 11 -25 14 -25 3z"/>
<path d="M402 389 c64 -60 102 -89 114 -89 7 0 14 -4 16 -8 5 -12 124 -72 143
-72 8 0 15 -4 15 -10 0 -5 9 -10 20 -10 12 0 33 -6 48 -14 15 -8 41 -15 57
-17 17 -2 35 -6 40 -10 16 -11 155 -30 166 -23 22 13 -31 33 -136 50 -61 10
-112 21 -115 25 -3 3 -27 14 -55 24 -27 11 -59 29 -70 42 -11 13 -26 23 -33
23 -6 0 -24 13 -40 29 -15 16 -48 37 -72 46 -25 9 -54 21 -65 25 -11 5 -31 12
-45 16 -22 6 -21 3 12 -27z"/>
<path d="M1620 182 c-7 -3 -21 -13 -31 -23 -18 -18 -18 -19 -1 -19 23 0 112
32 112 41 0 7 -58 8 -80 1z"/>
<path d="M1336 140 c-30 -3 -51 -11 -54 -19 -4 -12 9 -13 74 -8 43 4 84 13 91
20 11 11 6 13 -24 12 -21 0 -60 -2 -87 -5z"/>
</g>
</svg>
